<svg width="55" height="54" viewBox="0 0 55 54" fill="none" xmlns="http://www.w3.org/2000/svg">
<path d="M54.5 26.7135C54.5 41.1772 42.4255 52.927 27.5 52.927C12.5745 52.927 0.5 41.1772 0.5 26.7135C0.5 12.2498 12.5745 0.5 27.5 0.5C42.4255 0.5 54.5 12.2498 54.5 26.7135Z" stroke="#2D9CDB"/>
<path d="M37.6364 17.0851C36.3245 16.6851 34.8827 16.5137 33.5 16.5137C31.1955 16.5137 28.7136 16.9708 27 18.2279C25.2864 16.9708 22.8045 16.5137 20.5 16.5137C18.1955 16.5137 15.7136 16.9708 14 18.2279V34.9703C14 35.256 14.2955 35.5417 14.5909 35.5417C14.7091 35.5417 14.7682 35.4845 14.8864 35.4845C16.4818 34.7417 18.7864 34.2274 20.5 34.2274C22.8045 34.2274 25.2864 34.6846 27 35.9417C28.5955 34.9703 31.4909 34.2274 33.5 34.2274C35.45 34.2274 37.4591 34.5703 39.1136 35.4274C39.2318 35.4845 39.2909 35.4845 39.4091 35.4845C39.7045 35.4845 40 35.1988 40 34.9131V18.2279C39.2909 17.7136 38.5227 17.3708 37.6364 17.0851ZM37.6364 32.5132C36.3364 32.1132 34.9182 31.9418 33.5 31.9418C31.4909 31.9418 28.5955 32.6846 27 33.656V20.5136C28.5955 19.5422 31.4909 18.7993 33.5 18.7993C34.9182 18.7993 36.3364 18.9707 37.6364 19.3707V32.5132Z" fill="#EB5757"/>
</svg>
