<svg width="55" height="55" viewBox="0 0 55 55" fill="none" xmlns="http://www.w3.org/2000/svg">
<circle cx="27.5" cy="27.5" r="27" stroke="#2D9CDB"/>
<path d="M27.5 17C28.8924 17 30.2277 17.5373 31.2123 18.4937C32.1969 19.4501 32.75 20.7473 32.75 22.0998C32.75 23.4524 32.1969 24.7496 31.2123 25.706C30.2277 26.6624 28.8924 27.1997 27.5 27.1997C26.1076 27.1997 24.7723 26.6624 23.7877 25.706C22.8031 24.7496 22.25 23.4524 22.25 22.0998C22.25 20.7473 22.8031 19.4501 23.7877 18.4937C24.7723 17.5373 26.1076 17 27.5 17ZM27.5 29.7496C33.3013 29.7496 38 32.0318 38 34.8495V37.3994H17V34.8495C17 32.0318 21.6988 29.7496 27.5 29.7496Z" fill="#EB5757"/>
</svg>
